<?xml version="1.0" standalone="no"?>
<!DOCTYPE svg PUBLIC "-//W3C//DTD SVG 20010904//EN"
 "http://www.w3.org/TR/2001/REC-SVG-20010904/DTD/svg10.dtd">
<svg version="1.0" xmlns="http://www.w3.org/2000/svg"
 width="912.000000pt" height="1188.000000pt" viewBox="0 0 912.000000 1188.000000"
 preserveAspectRatio="xMidYMid meet">

<g transform="translate(0.000000,1188.000000) scale(0.100000,-0.100000)"
fill="#000000" stroke="none">
<path d="M4716 10880 c-137 -29 -271 -75 -405 -140 -163 -79 -254 -144 -365
-260 -128 -136 -178 -233 -197 -385 -6 -48 -17 -87 -27 -98 -9 -10 -37 -80
-63 -155 l-46 -136 -84 -17 c-93 -18 -169 -52 -224 -100 -30 -27 -35 -37 -35
-74 0 -62 -28 -91 -111 -113 -169 -47 -255 -151 -270 -328 -8 -97 -33 -166
-72 -202 -12 -11 -53 -39 -92 -62 -246 -147 -449 -350 -539 -540 -20 -41 -36
-86 -36 -100 0 -34 -8 -42 -60 -65 -141 -62 -345 -243 -408 -362 -37 -70 -64
-181 -55 -225 5 -26 0 -35 -45 -74 -84 -73 -111 -156 -76 -230 23 -49 106
-117 180 -151 57 -25 63 -31 64 -58 0 -37 -22 -120 -44 -161 -42 -81 -220
-749 -256 -959 -7 -38 -13 -128 -15 -200 -2 -71 -10 -152 -18 -180 -11 -42
-12 -69 -1 -170 20 -191 18 -227 -20 -340 -26 -77 -36 -124 -41 -206 -6 -98
-4 -114 26 -225 17 -65 53 -165 80 -222 l49 -103 4 -442 c3 -460 11 -579 46
-667 31 -79 24 -143 -21 -195 -10 -11 -38 -60 -62 -110 -140 -283 -197 -460
-216 -672 -6 -67 -27 -236 -46 -375 -136 -993 -160 -1243 -135 -1366 16 -79
18 -180 7 -314 l-9 -98 1776 0 1776 0 0 76 c0 67 -2 76 -20 81 -14 4 -20 14
-20 34 0 38 32 69 71 69 36 0 64 14 73 35 5 13 2 13 -26 -1 -17 -9 -51 -15
-77 -15 -25 1 -56 2 -68 2 -20 1 -23 7 -23 40 0 45 11 50 30 15 14 -28 43 -43
48 -26 3 8 8 7 18 -1 11 -9 14 -8 14 2 0 8 -24 33 -54 55 -29 23 -56 51 -59
63 -6 24 26 71 49 71 12 0 14 14 12 75 -2 63 -6 75 -20 75 -9 0 -20 9 -23 21
-5 16 -10 18 -21 8 -8 -6 -14 -21 -14 -33 0 -12 -6 -31 -14 -41 -12 -16 -16
-17 -30 -6 -54 45 -3 248 57 225 15 -5 15 -9 1 -42 -8 -20 -21 -44 -29 -52
-18 -20 -21 -115 -4 -104 7 4 9 21 5 45 -4 24 -2 39 4 39 5 0 10 -6 10 -12 0
-7 10 2 21 19 12 18 25 33 30 33 5 0 6 15 3 33 -20 119 -37 187 -58 231 -13
28 -44 105 -69 171 -84 225 -129 306 -220 399 -79 80 -161 201 -185 273 -12
38 -6 41 38 18 36 -18 28 -26 130 131 67 104 84 123 118 137 48 19 154 137
172 191 6 20 15 36 18 36 4 0 22 14 41 30 18 17 39 30 46 30 7 0 38 27 68 60
65 70 98 145 105 240 4 54 10 72 38 109 29 38 34 52 34 99 0 46 -6 64 -34 106
-74 112 -221 394 -271 521 -32 80 -34 82 -136 134 -74 39 -76 41 -104 106 -15
36 -39 82 -52 101 -28 42 -24 61 34 203 45 110 81 214 93 268 7 29 5 152 -5
375 -8 183 -13 332 -12 333 62 21 213 48 294 52 l108 6 106 -55 c149 -77 140
-77 198 -5 62 79 157 169 200 191 18 10 69 21 114 26 45 4 117 20 160 35 79
28 107 28 107 0 0 -12 15 -15 85 -15 100 0 118 -7 210 -85 35 -30 69 -55 75
-55 5 0 10 10 11 23 0 35 173 -317 233 -476 42 -111 75 -178 151 -301 53 -87
126 -215 161 -284 63 -126 64 -128 64 -212 0 -47 7 -110 16 -140 8 -30 19 -87
24 -127 10 -82 37 -142 75 -167 14 -9 23 -21 19 -27 -4 -6 -11 -6 -20 2 -23
19 -28 -15 -11 -69 14 -41 14 -49 1 -63 -8 -8 -12 -18 -9 -21 4 -3 -7 -10 -23
-16 l-29 -10 5 -108 c5 -118 11 -133 66 -161 25 -13 59 -14 218 -8 160 6 188
5 188 -8 0 -8 -25 -54 -55 -103 -77 -123 -116 -208 -165 -354 -46 -140 -62
-259 -40 -300 7 -14 12 -44 11 -68 -2 -62 -38 -222 -71 -316 -22 -62 -32 -120
-45 -251 -35 -372 -105 -1078 -121 -1219 -11 -107 -13 -151 -5 -159 20 -20 12
-25 -33 -20 -52 6 -100 -3 -91 -17 3 -6 29 -10 57 -10 l51 0 -7 -95 -7 -95
631 0 632 0 -6 38 c-3 20 -8 91 -11 157 -22 419 -78 837 -129 960 -9 20 -20
83 -26 140 -39 381 -229 1250 -295 1352 -9 14 -15 27 -12 29 4 5 56 -11 102
-31 34 -15 104 -35 122 -35 15 0 104 131 203 299 51 88 87 165 120 260 26 75
82 227 124 339 63 168 76 213 76 261 0 72 16 163 31 172 7 4 2 27 -16 70 -24
59 -27 85 -42 330 l-16 266 37 63 37 63 -46 164 c-99 359 -238 689 -365 863
-78 108 -127 230 -117 293 4 26 -5 47 -48 112 -30 44 -73 100 -97 125 -47 48
-76 95 -199 318 l-79 143 61 122 c67 134 125 236 176 310 l33 47 -24 10 c-13
5 -40 12 -59 15 -20 4 -42 17 -50 29 -42 64 -124 143 -217 211 -212 153 -210
151 -199 187 13 48 12 53 -21 65 -25 9 -30 17 -30 45 0 55 14 65 45 34 15 -15
29 -25 31 -23 2 2 -26 36 -64 76 -37 40 -81 98 -98 129 -36 66 -66 86 -155
105 -175 37 -485 232 -564 355 -27 43 -28 45 -19 140 17 195 8 226 -123 424
l-85 128 26 52 c30 62 46 131 46 191 0 23 2 96 6 163 l6 120 50 18 c52 18 60
41 15 41 -30 1 -81 44 -104 90 -9 16 -20 65 -24 107 -10 103 -42 223 -80 304
-36 76 -123 174 -177 199 -20 10 -64 43 -97 72 -138 125 -337 233 -436 236
l-49 2 0 36 c0 47 -28 82 -78 97 -56 17 -173 14 -276 -8z m549 -734 c19 -8 35
-17 35 -20 0 -3 -11 -21 -25 -41 -43 -64 -68 -144 -68 -215 1 -73 5 -111 12
-105 2 3 18 -4 35 -15 37 -22 101 -38 171 -41 51 -2 90 -23 78 -42 -3 -5 -2
-7 4 -4 6 4 33 -3 61 -15 37 -16 52 -28 57 -47 4 -14 3 -27 -2 -28 -4 -2 -7
-23 -5 -48 2 -25 1 -45 -3 -45 -4 0 -37 15 -74 33 -55 27 -79 33 -151 35 -102
4 -140 -7 -140 -42 0 -29 10 -32 159 -40 98 -6 154 -18 185 -42 18 -13 18 -15
1 -61 -10 -26 -31 -58 -47 -71 -31 -26 -34 -49 -16 -115 9 -36 8 -63 -6 -148
-10 -57 -17 -112 -17 -122 0 -9 -4 -15 -9 -12 -4 3 -6 -4 -3 -14 3 -11 -3 -28
-14 -38 -10 -11 -19 -26 -21 -33 -2 -7 -17 -33 -33 -57 -27 -38 -33 -42 -47
-31 -15 12 -16 11 -4 -4 12 -15 8 -25 -33 -77 -26 -34 -52 -58 -58 -54 -5 3
-7 1 -4 -4 8 -13 -30 -63 -46 -60 -7 1 -11 -3 -10 -10 2 -7 -32 -50 -74 -95
-72 -77 -106 -108 -88 -78 5 9 4 11 -4 6 -6 -4 -9 -11 -6 -16 7 -12 -74 -81
-135 -114 -43 -23 -64 -28 -123 -28 -91 -1 -226 43 -257 83 -3 3 -23 16 -46
27 -22 11 -56 40 -75 64 -56 68 -119 165 -112 172 4 3 2 6 -4 6 -15 0 -75 108
-68 121 4 5 1 8 -7 7 -7 -2 -13 4 -13 12 0 8 6 14 13 12 8 -1 11 2 8 7 -10 15
64 73 85 68 11 -3 17 -2 14 2 -2 5 7 14 20 21 42 22 46 138 9 246 -15 43 -14
48 18 142 27 79 33 113 33 179 0 81 0 82 28 87 15 3 28 5 30 3 1 -1 17 8 34
21 18 13 38 20 44 16 7 -4 9 -3 6 3 -4 6 4 20 17 32 13 12 29 42 36 65 l12 43
96 -18 c54 -9 114 -25 136 -34 71 -30 107 -11 92 50 -9 34 -80 55 -213 62
l-113 6 -10 35 c-6 24 -6 50 2 79 8 33 8 51 -1 69 -6 14 -8 31 -5 37 4 7 3 9
-1 4 -5 -4 -21 5 -37 20 -32 30 -37 73 -12 94 14 12 19 10 38 -12 11 -15 40
-39 64 -54 37 -24 52 -28 105 -26 253 9 259 11 265 117 2 38 9 75 14 82 12 14
80 16 94 2 7 -7 23 -6 50 4 21 8 40 15 42 15 1 1 18 -6 37 -13z m-2963 -2238
c25 -33 22 -63 -8 -87 -66 -52 -171 10 -134 79 24 45 110 50 142 8z m721 -417
c30 -12 43 -66 26 -104 -15 -32 -74 -45 -116 -25 -37 18 -52 68 -30 102 21 32
75 44 120 27z m3716 -147 c24 -31 26 -43 9 -79 -14 -31 -50 -33 -78 -5 -24 24
-26 67 -3 92 23 25 48 22 72 -8z m-3432 -64 c92 -56 21 -159 -80 -116 -42 17
-56 51 -36 88 27 51 64 60 116 28z m3361 -136 c38 -32 41 -60 7 -76 -34 -15
-69 2 -91 43 -15 31 -15 33 2 46 26 19 46 16 82 -13z m-2381 -1394 c17 -20 16
-101 -1 -123 -19 -25 -42 -12 -60 34 -20 50 -20 93 0 114 17 17 32 10 61 -25z
m2306 -111 c20 -25 22 -68 4 -92 -6 -10 -28 -20 -47 -23 -28 -5 -40 -1 -63 20
-34 32 -35 69 -1 103 20 20 31 24 57 19 18 -3 40 -16 50 -27z m-2333 -4792 c0
-7 -13 -31 -30 -53 -18 -24 -29 -51 -29 -69 l1 -30 10 28 c15 41 38 35 39 -10
1 -21 3 -30 6 -20 2 9 8 17 13 17 4 0 10 9 13 20 5 21 41 28 52 10 4 -6 0 -22
-9 -35 -20 -30 -3 -43 18 -13 22 30 31 16 11 -16 -20 -31 -50 -34 -67 -7 -12
20 -12 20 -26 0 -20 -29 -30 -23 -34 19 -4 36 -4 36 -12 -15 -10 -64 -31 -70
-41 -13 l-7 39 -22 -26 c-35 -40 -56 -26 -56 37 0 50 0 50 -27 44 -25 -7 -27
-6 -14 9 7 10 21 17 31 17 10 0 20 7 24 15 8 23 28 18 21 -5 -8 -25 3 -26 21
-2 13 16 13 16 14 -1 0 -11 -9 -21 -20 -24 -16 -4 -20 -14 -20 -50 l0 -45 25
30 c14 17 25 40 25 53 0 13 9 43 20 67 15 33 24 42 45 42 14 0 25 -6 25 -13z
m-1107 -19 c-4 -7 -6 -20 -5 -30 4 -20 -11 -30 -32 -22 -20 8 -20 23 1 46 18
20 49 25 36 6z m52 -13 c0 -28 -19 -50 -34 -41 -16 10 -14 32 5 50 22 22 30
20 29 -9z m485 11 c0 -7 -13 -40 -30 -72 -16 -32 -30 -72 -29 -89 l0 -30 16
38 c8 20 21 37 29 37 8 0 14 7 14 15 0 8 5 15 10 15 6 0 10 -16 10 -36 l0 -37
34 36 c22 23 36 32 39 24 3 -8 11 -4 22 11 29 39 45 28 40 -25 -4 -39 -3 -44
5 -28 14 26 37 40 78 50 26 5 32 3 32 -10 0 -8 7 -18 15 -21 10 -4 12 -10 7
-18 -5 -6 -14 -40 -21 -76 -8 -49 -17 -71 -36 -87 l-26 -23 50 0 50 0 3 -87
c3 -80 5 -88 23 -88 18 0 20 8 23 73 2 44 -2 79 -8 87 -10 12 12 14 125 17
127 3 160 -1 135 -17 -6 -4 -4 -16 7 -31 l17 -26 18 24 c10 12 16 29 13 36 -3
8 8 12 38 11 38 0 40 -1 17 -10 -14 -5 -37 -24 -51 -41 l-27 -32 25 -40 c14
-23 37 -53 51 -68 l26 -28 -78 0 c-62 0 -76 3 -68 13 8 9 6 19 -7 36 l-17 23
-18 -26 c-9 -15 -14 -31 -11 -36 9 -14 -158 -13 -172 1 -8 8 -17 8 -31 0 -33
-18 -90 -13 -112 9 -17 17 -20 33 -20 101 0 80 0 80 -30 90 -26 10 -30 16 -30
47 0 40 24 84 60 109 21 15 22 15 12 -4 -6 -11 -18 -25 -26 -32 -24 -20 -41
-82 -26 -91 30 -19 58 18 69 91 8 48 4 55 -24 49 -5 -1 -14 6 -21 15 -10 13
-14 11 -28 -20 -9 -19 -21 -35 -27 -35 -14 0 -30 47 -22 67 4 12 0 11 -11 -4
-10 -13 -21 -23 -26 -23 -5 0 -10 10 -12 23 -4 21 -4 21 -17 -5 -24 -48 -60
-48 -62 0 -1 24 -3 23 -20 -16 -22 -47 -51 -55 -57 -14 -2 12 -9 22 -17 22 -7
0 -15 5 -17 12 -2 6 -12 -5 -22 -25 -21 -45 -34 -47 -48 -6 -7 22 -14 27 -21
20 -17 -17 -27 -13 -27 12 -1 22 -1 22 -15 2 -35 -49 -51 -57 -61 -30 -8 20 5
85 16 85 6 0 10 -16 10 -36 l0 -36 31 31 c17 17 35 28 41 25 5 -3 16 3 24 15
27 38 44 27 37 -24 l-6 -46 33 31 c18 16 36 30 40 30 4 0 11 16 14 36 8 38 37
74 61 74 8 0 15 -6 15 -14z m-401 -19 c6 -8 23 -12 41 -9 17 2 30 0 30 -6 0
-6 -12 -12 -27 -14 -14 -2 -28 -8 -30 -14 -2 -7 6 -10 22 -7 14 3 25 1 25 -5
0 -6 -12 -12 -27 -14 -16 -2 -28 -9 -29 -18 -1 -8 -2 -34 -2 -57 -2 -35 -6
-43 -21 -43 -17 0 -20 9 -23 66 -1 36 0 68 5 71 4 2 7 17 7 34 0 31 11 37 29
16z m112 -50 c-18 -18 -25 1 -11 30 l14 28 4 -24 c2 -13 -1 -28 -7 -34z m319
24 c0 -20 -17 -37 -27 -28 -7 8 7 47 18 47 5 0 9 -9 9 -19z m802 -226 c9 -19
8 -29 -6 -50 -9 -14 -24 -25 -34 -24 -10 0 -12 3 -4 6 17 7 15 23 -3 23 -22 0
-39 38 -24 56 19 23 58 17 71 -11z m-1925 -13 c54 -38 67 -127 29 -201 -75
-143 -338 -220 -432 -126 -31 31 -32 87 -3 116 29 29 89 23 106 -10 15 -32 1
-61 -31 -61 -30 0 -39 10 -24 27 14 18 -4 38 -27 30 -43 -17 -29 -82 22 -104
31 -12 47 -13 97 -3 103 20 166 68 194 149 33 95 -13 233 -64 190 -11 -9 -14
-39 -14 -127 0 -98 3 -117 18 -128 14 -11 5 -13 -67 -14 -81 0 -83 1 -68 18
14 15 17 40 17 131 0 121 -4 130 -55 117 -31 -8 -48 -39 -48 -89 0 -44 14 -63
38 -53 14 5 15 9 4 22 -10 13 -10 17 2 25 18 11 30 7 43 -15 9 -14 6 -21 -13
-37 -13 -10 -32 -19 -43 -19 -39 0 -90 33 -104 66 -20 47 -4 80 48 105 38 17
61 19 193 17 137 -3 153 -5 182 -26z m246 -43 c90 -25 60 -119 -37 -119 -20 0
-36 -4 -36 -8 0 -9 36 -44 57 -56 17 -9 53 11 53 29 0 8 5 15 10 15 18 0 10
-21 -19 -51 -57 -57 -179 -30 -199 44 -19 68 11 128 72 146 42 13 55 13 99 0z
m499 1 c90 -25 63 -118 -36 -122 -20 -1 -36 -4 -36 -8 0 -7 38 -43 57 -54 17
-9 53 11 53 29 0 8 5 15 10 15 13 0 13 -4 -1 -33 -22 -49 -117 -63 -176 -27
-74 45 -55 174 30 199 43 13 56 13 99 1z m279 0 c10 -6 19 -19 19 -28 0 -38
-46 -56 -70 -27 -10 12 -16 13 -26 4 -16 -14 -20 -134 -4 -144 26 -16 3 -25
-67 -25 -73 0 -75 1 -60 18 25 27 24 177 0 191 -14 8 -1 10 50 11 54 0 67 -3
67 -16 0 -13 5 -12 26 5 30 24 38 25 65 11z m227 -26 c28 -32 28 -39 -3 -69
-21 -22 -53 -31 -92 -26 -7 1 -13 -2 -13 -7 0 -11 41 -48 60 -54 20 -7 50 9
50 27 0 8 5 15 10 15 13 0 13 -4 -1 -33 -22 -49 -117 -63 -176 -27 -55 33 -63
130 -14 174 47 43 141 43 179 0z m3394 26 c60 -17 73 -56 33 -95 -18 -18 -35
-25 -65 -25 -22 0 -40 -4 -40 -8 0 -9 36 -44 57 -56 17 -9 53 11 53 29 0 8 5
15 10 15 18 0 10 -21 -19 -51 -24 -24 -38 -29 -78 -29 -92 0 -145 62 -122 144
19 68 88 99 171 76z m-4210 -8 c-10 -7 -7 -24 14 -78 14 -38 29 -72 33 -76 9
-10 54 140 46 153 -4 5 6 9 21 9 21 0 24 -3 15 -14 -6 -7 -24 -55 -39 -107
l-27 -94 -54 0 -54 0 -34 95 c-19 52 -41 101 -50 108 -14 10 -3 12 63 12 44 0
73 -4 66 -8z m3820 -79 c3 -80 5 -88 23 -88 18 0 20 8 23 73 2 46 -2 79 -9 88
-10 12 -2 14 50 14 l61 0 0 -92 c0 -71 4 -95 17 -110 15 -17 14 -18 -38 -18
-30 0 -60 5 -66 11 -8 8 -17 8 -31 0 -30 -16 -84 -14 -110 5 -20 14 -22 24
-22 99 0 69 -3 86 -17 94 -14 8 -1 10 49 11 l67 0 3 -87z m-2272 -203 c0 -11
-7 -20 -16 -20 -8 0 -12 -5 -9 -10 4 -6 12 -7 18 -4 9 5 9 4 1 -5 -16 -18 -58
-9 -62 12 -6 32 6 47 38 47 23 0 30 -4 30 -20z m-85 -20 c3 -5 -3 -10 -14 -10
-12 0 -21 5 -21 10 0 6 6 10 14 10 8 0 18 -4 21 -10z"/>
<path d="M5236 10087 c3 -10 9 -15 12 -12 3 3 0 11 -7 18 -10 9 -11 8 -5 -6z"/>
<path d="M4567 9949 c7 -7 15 -10 18 -7 3 3 -2 9 -12 12 -14 6 -15 5 -6 -5z"/>
<path d="M5447 9649 c7 -7 15 -10 18 -7 3 3 -2 9 -12 12 -14 6 -15 5 -6 -5z"/>
<path d="M5364 8748 c-4 -7 -4 -10 1 -6 4 4 15 2 24 -5 14 -11 14 -10 2 6 -16
20 -18 21 -27 5z"/>
<path d="M4270 8725 c-11 -13 -10 -14 4 -9 9 3 16 10 16 15 0 13 -6 11 -20 -6z"/>
<path d="M4220 830 c-6 -12 -9 -24 -7 -27 3 -2 11 5 17 17 6 12 9 24 7 27 -3
2 -11 -5 -17 -17z"/>
<path d="M3650 790 c-7 -17 -10 -33 -8 -36 3 -2 11 9 18 26 7 17 10 33 8 36
-3 2 -11 -9 -18 -26z"/>
<path d="M3590 700 c0 -5 5 -10 10 -10 6 0 10 5 10 10 0 6 -4 10 -10 10 -5 0
-10 -4 -10 -10z"/>
<path d="M3910 694 c0 -8 5 -12 10 -9 6 3 10 10 10 16 0 5 -4 9 -10 9 -5 0
-10 -7 -10 -16z"/>
<path d="M4150 406 c0 -130 11 -141 73 -78 l36 37 -39 63 c-56 88 -70 83 -70
-22z"/>
<path d="M2781 476 c-7 -8 -11 -32 -9 -53 l3 -38 23 23 c25 25 31 82 8 82 -7
0 -19 -6 -25 -14z"/>
<path d="M3281 476 c-7 -8 -11 -32 -9 -53 l3 -38 23 23 c25 25 31 82 8 82 -7
0 -19 -6 -25 -14z"/>
<path d="M3751 476 c-7 -8 -11 -32 -9 -53 l3 -38 23 23 c25 25 31 82 8 82 -7
0 -19 -6 -25 -14z"/>
<path d="M7181 476 c-7 -8 -11 -32 -9 -53 l3 -38 23 23 c25 25 31 82 8 82 -7
0 -19 -6 -25 -14z"/>
<path d="M5992 838 c-7 -7 -12 -16 -12 -21 0 -5 7 -1 16 8 9 9 14 18 12 20 -2
3 -10 -1 -16 -7z"/>
<path d="M6515 790 c-10 -11 -15 -20 -11 -20 4 0 19 9 33 20 17 13 20 20 11
20 -8 0 -23 -9 -33 -20z"/>
<path d="M6567 788 c-19 -20 -17 -35 2 -23 14 8 34 45 24 44 -4 0 -16 -10 -26
-21z"/>
<path d="M4505 785 c-16 -49 -16 -51 0 -31 15 19 20 46 10 46 -3 0 -8 -7 -10
-15z"/>
<path d="M5975 759 c-4 -6 -5 -12 -2 -15 2 -3 7 2 10 11 7 17 1 20 -8 4z"/>
<path d="M4860 750 c-13 -8 -12 -10 3 -10 9 0 17 5 17 10 0 12 -1 12 -20 0z"/>
<path d="M5190 750 c-13 -8 -12 -10 3 -10 9 0 17 5 17 10 0 12 -1 12 -20 0z"/>
<path d="M5590 750 c-9 -6 -10 -10 -3 -10 6 0 15 5 18 10 8 12 4 12 -15 0z"/>
<path d="M6030 750 c-13 -8 -12 -10 3 -10 9 0 17 5 17 10 0 12 -1 12 -20 0z"/>
<path d="M6190 750 c-13 -8 -12 -10 3 -10 9 0 17 5 17 10 0 12 -1 12 -20 0z"/>
<path d="M6240 750 c-13 -8 -12 -10 3 -10 9 0 17 5 17 10 0 12 -1 12 -20 0z"/>
<path d="M4900 739 c0 -5 5 -7 10 -4 6 3 10 8 10 11 0 2 -4 4 -10 4 -5 0 -10
-5 -10 -11z"/>
<path d="M6280 735 c0 -8 2 -15 4 -15 2 0 6 7 10 15 3 8 1 15 -4 15 -6 0 -10
-7 -10 -15z"/>
<path d="M4577 723 c-4 -3 -7 -11 -7 -17 0 -6 5 -5 12 2 6 6 9 14 7 17 -3 3
-9 2 -12 -2z"/>
<path d="M6130 710 c-8 -5 -11 -12 -7 -16 4 -4 13 -2 19 4 15 15 7 24 -12 12z"/>
<path d="M4677 703 c-4 -3 -7 -11 -7 -17 0 -6 5 -5 12 2 6 6 9 14 7 17 -3 3
-9 2 -12 -2z"/>
<path d="M5836 694 c-5 -14 -4 -15 9 -4 17 14 19 20 6 20 -5 0 -12 -7 -15 -16z"/>
<path d="M4951 688 c-1 -22 11 -29 29 -17 13 7 12 9 -2 9 -9 0 -19 6 -21 13
-3 7 -6 6 -6 -5z"/>
<path d="M6327 694 c-3 -3 0 -13 8 -20 14 -15 45 -9 45 8 0 6 -6 6 -14 -1 -11
-10 -16 -9 -23 4 -5 8 -12 13 -16 9z"/>
<path d="M5267 667 c-10 -10 -16 -21 -13 -24 7 -7 39 25 34 35 -2 4 -11 -1
-21 -11z"/>
<path d="M5721 683 c-1 -6 -4 -20 -7 -30 -5 -17 -5 -17 6 0 6 10 9 23 6 30 -3
9 -5 9 -5 0z"/>
<path d="M5875 660 c-10 -11 -24 -20 -32 -20 -7 0 -13 -4 -13 -10 0 -19 27
-10 55 20 16 17 24 30 18 30 -5 0 -18 -9 -28 -20z"/>
<path d="M4916 655 c-10 -8 -23 -12 -27 -9 -5 3 -9 0 -9 -5 0 -18 26 -12 45 9
21 23 18 25 -9 5z"/>
<path d="M5656 660 c-15 -5 -16 -9 -7 -14 7 -5 18 -3 24 3 14 14 6 20 -17 11z"/>
<path d="M6305 660 c-3 -5 -15 -10 -26 -10 -10 0 -19 -4 -19 -10 0 -17 26 -11
45 10 10 11 15 20 12 20 -3 0 -9 -4 -12 -10z"/>
<path d="M4643 645 c2 -5 12 -10 22 -10 10 0 20 5 22 10 2 6 -8 10 -22 10 -14
0 -23 -4 -22 -10z"/>
<path d="M5615 650 c-3 -5 -15 -10 -26 -10 -11 0 -17 -4 -14 -10 10 -16 29
-12 43 10 7 11 10 20 8 20 -3 0 -8 -4 -11 -10z"/>
<path d="M6140 650 c-8 -5 -23 -7 -32 -4 -10 3 -18 1 -18 -5 0 -16 33 -13 56
4 21 16 17 20 -6 5z"/>
<path d="M4770 640 c0 -5 9 -10 21 -10 11 0 17 5 14 10 -3 6 -13 10 -21 10 -8
0 -14 -4 -14 -10z"/>
<path d="M5190 641 c-18 -5 -21 -9 -11 -15 8 -5 19 -2 29 8 9 9 14 16 12 15
-3 -1 -16 -4 -30 -8z"/>
<path d="M5730 640 c0 -15 21 -23 32 -12 6 6 2 11 -11 15 -12 3 -21 1 -21 -3z"/>
<path d="M6013 635 c5 -15 34 -18 39 -3 4 8 -3 13 -18 13 -13 0 -23 -4 -21
-10z"/>
<path d="M6177 633 c3 -7 11 -13 18 -13 7 0 15 6 18 13 3 7 -4 12 -18 12 -14
0 -21 -5 -18 -12z"/>
<path d="M4710 620 c-22 -6 -23 -8 -7 -15 11 -4 23 -3 30 4 15 15 7 19 -23 11z"/>
<path d="M5297 614 c6 -16 19 -18 27 -5 3 5 -3 11 -13 14 -14 3 -18 1 -14 -9z"/>
<path d="M5691 621 c-8 -6 -9 -11 -3 -15 6 -3 14 -1 17 5 9 14 2 20 -14 10z"/>
<path d="M5943 612 c9 -8 23 -12 31 -9 26 10 18 22 -15 23 -27 1 -29 0 -16
-14z"/>
<path d="M4810 610 c0 -5 7 -10 15 -10 8 0 15 5 15 10 0 6 -7 10 -15 10 -8 0
-15 -4 -15 -10z"/>
<path d="M5496 604 c-11 -8 -30 -14 -43 -14 -13 0 -23 -4 -23 -10 0 -17 47
-11 71 9 28 23 23 36 -5 15z"/>
<path d="M5800 560 c-20 -16 -21 -20 -8 -20 10 0 22 9 28 20 13 25 11 25 -20
0z"/>
<path d="M6379 555 c-19 -20 -37 -26 -76 -28 -38 -1 -49 -5 -45 -16 4 -10 17
-12 48 -7 52 7 79 22 93 53 13 29 11 29 -20 -2z"/>
<path d="M4980 541 c-14 -9 -27 -19 -28 -24 -2 -4 -7 -5 -10 -3 -4 2 -8 -12
-9 -33 -1 -28 1 -31 7 -15 13 34 61 66 87 59 13 -3 23 -1 23 5 0 5 -9 10 -19
10 -11 0 -21 4 -23 9 -1 5 -14 1 -28 -8z"/>
<path d="M5160 536 c0 -2 7 -6 15 -10 8 -3 15 -1 15 4 0 6 -7 10 -15 10 -8 0
-15 -2 -15 -4z"/>
<path d="M4647 473 c12 -2 27 -11 33 -19 7 -8 18 -14 24 -14 6 1 0 10 -13 20
-13 11 -33 19 -45 19 l-21 -2 22 -4z"/>
<path d="M5476 454 c-4 -14 -5 -28 -3 -31 3 -2 7 8 11 22 7 29 21 32 36 8 10
-16 10 -16 8 2 -2 11 -12 21 -24 23 -16 2 -23 -4 -28 -24z"/>
<path d="M5696 467 c3 -10 9 -15 12 -12 3 3 0 11 -7 18 -10 9 -11 8 -5 -6z"/>
<path d="M5846 465 c4 -8 8 -15 10 -15 2 0 4 7 4 15 0 8 -4 15 -10 15 -5 0 -7
-7 -4 -15z"/>
<path d="M6035 470 c3 -5 8 -10 11 -10 2 0 4 5 4 10 0 6 -5 10 -11 10 -5 0 -7
-4 -4 -10z"/>
<path d="M6150 469 c0 -5 5 -7 10 -4 6 3 10 8 10 11 0 2 -4 4 -10 4 -5 0 -10
-5 -10 -11z"/>
<path d="M6516 458 c-22 -32 -20 -42 4 -18 12 12 25 18 30 15 6 -4 10 1 10 9
0 23 -26 19 -44 -6z"/>
<path d="M5267 463 c-4 -3 -7 -11 -7 -17 0 -6 5 -5 12 2 6 6 9 14 7 17 -3 3
-9 2 -12 -2z"/>
<path d="M5160 431 c0 -5 9 -13 21 -16 11 -4 24 -16 29 -28 7 -18 9 -18 9 -4
1 9 -8 26 -19 37 -21 21 -40 26 -40 11z"/>
<path d="M4850 413 c0 -17 59 -63 81 -63 29 0 23 17 -8 25 -16 3 -38 16 -50
27 -13 12 -23 17 -23 11z"/>
<path d="M5010 370 c-19 -15 -21 -20 -9 -20 16 0 46 27 38 35 -2 2 -15 -5 -29
-15z"/>
<path d="M5615 323 c-49 -58 -150 -62 -215 -7 -42 36 -38 13 5 -25 31 -27 43
-31 91 -31 30 0 67 6 82 14 33 17 65 51 61 64 -2 5 -13 -2 -24 -15z"/>
<path d="M6410 338 c0 -5 13 -23 29 -39 24 -24 38 -29 75 -29 25 0 46 5 46 10
0 6 -21 10 -46 10 -37 0 -51 5 -75 29 -16 16 -29 25 -29 19z"/>
<path d="M5287 304 c-16 -13 -41 -24 -57 -24 -16 0 -32 -4 -35 -10 -4 -6 8
-10 29 -10 25 0 45 9 68 29 40 35 35 49 -5 15z"/>
<path d="M6050 313 c0 -5 9 -18 19 -27 22 -20 101 -34 101 -19 0 6 -18 13 -41
16 -22 3 -49 13 -60 23 -10 9 -19 13 -19 7z"/>
<path d="M5712 297 c2 -7 20 -20 40 -30 34 -17 39 -17 74 -2 26 10 41 12 48 5
13 -13 96 -13 96 0 0 6 -20 10 -44 10 -25 0 -48 5 -51 11 -4 6 -14 7 -24 4
-53 -22 -71 -23 -106 -5 -22 11 -35 14 -33 7z"/>
<path d="M5040 270 c0 -6 28 -10 65 -10 37 0 65 4 65 10 0 6 -28 10 -65 10
-37 0 -65 -4 -65 -10z"/>
<path d="M6220 270 c0 -6 30 -10 71 -10 44 0 68 4 64 10 -3 6 -35 10 -71 10
-36 0 -64 -4 -64 -10z"/>
</g>
</svg>
